# xmcd
# 
# Track frame offsets:
#     150
#     2883
#     17865
#     29681
#     47257
#     63621
#     78989
#     92187
#     107156
#     118784
#     136227
#     152412
#     167567
#     180713
#     195544
#     207189
#     224519
#     240740
#     255871
# 
# Disc length: 3584
# 
# Revision: 1
# Processed by: cddbd v1.5.2PL0 Copyright (c) Steve Scherf et al.
# Submitted via: fre:ac v1.0.17
# 
DISCID=fe0dfe13
DTITLE=Fischer, Tschira, Lederer - Ein halbes dutzend Blues Playalongs
DYEAR=2002
DGENRE=Blues
TTITLE0=Stimmtöne Bb - A (440 Hz)
TTITLE1=Alt_Jammin
TTITLE2=Alt_Straight,Mama, Straight
TTITLE3=Alt_Railroad Rock
TTITLE4=Alt_I'm in the mood to swing
TTITLE5=Alt_Budgie's Cage
TTITLE6=Alt_Push Me Up
TTITLE7=Tenor_Jammin
TTITLE8=Tenor_Straight, Mama, Straight
TTITLE9=Tenor_Railroad Rock
TTITLE10=Tenor_I'm in the mood for swing
TTITLE11=Tenor_Budgie's Cafe
TTITLE12=Tenor_Push Me Up
TTITLE13=Playback_Jammin
TTITLE14=Playback_Straight, Mama, Straight
TTITLE15=Playback_Railroad Rock
TTITLE16=Playback_I'm in the mood for swing
TTITLE17=Playback_Budgie's Cage
TTITLE18=Playback_Push Me Up
EXTD=
EXTT0=
EXTT1=
EXTT2=
EXTT3=
EXTT4=
EXTT5=
EXTT6=
EXTT7=
EXTT8=
EXTT9=
EXTT10=
EXTT11=
EXTT12=
EXTT13=
EXTT14=
EXTT15=
EXTT16=
EXTT17=
EXTT18=
PLAYORDER=
